<?xml version="1.0" encoding="utf-8"?>
<!-- Generator: Adobe Illustrator 25.1.0, SVG Export Plug-In . SVG Version: 6.00 Build 0)  -->
<svg version="1.1" id="Слой_1" xmlns="http://www.w3.org/2000/svg" xmlns:xlink="http://www.w3.org/1999/xlink" x="0px" y="0px"
	 viewBox="0 0 149.0678711 35.1953125" style="enable-background:new 0 0 149.0678711 35.1953125;" xml:space="preserve">
<g>
	<path d="M4.1650391,34.8828125c-1.1455078,0-2.1264648-0.3984375-2.9418945-1.1972656
		C0.4072266,32.887207,0,31.9150391,0,30.7695313V5.6225586c0-1.1450195,0.4072266-2.1083984,1.2231445-2.8891602
		c0.8154297-0.78125,1.7963867-1.171875,2.9418945-1.171875c1.1796875,0,2.1689453,0.390625,2.9677734,1.171875
		c0.7978516,0.7807617,1.1972656,1.7441406,1.1972656,2.8891602v25.1469727c0,1.1455078-0.3994141,2.1176758-1.1972656,2.9160156
		C6.3339844,34.484375,5.3447266,34.8828125,4.1650391,34.8828125z"/>
	<path d="M34.2578125,1.5615234c1.1455078,0,2.1259766,0.3994141,2.9418945,1.1977539
		c0.8149414,0.7988281,1.2236328,1.7529297,1.2236328,2.8632813c0,0.972168-0.4165039,1.831543-1.25,2.5771484
		c-0.8330078,0.7470703-1.8046875,1.1196289-2.9155273,1.1196289h-5.5708008v21.5024414
		c0,1.1455078-0.4165039,2.1083984-1.2495117,2.8896484c-0.8330078,0.7807617-1.8222656,1.1713867-2.9677734,1.1713867
		c-1.1450195,0-2.1171875-0.390625-2.9155273-1.1713867c-0.7988281-0.78125-1.1972656-1.7441406-1.1972656-2.8896484V9.3193359
		h-5.5708008c-1.1113281,0-2.074707-0.3813477-2.8896484-1.1455078c-0.815918-0.7631836-1.2236328-1.5961914-1.2236328-2.4990234
		c0-1.1455078,0.3989258-2.1166992,1.1977539-2.9155273c0.7978516-0.7983398,1.7700195-1.1977539,2.9155273-1.1977539H34.2578125z"
		/>
	<path d="M47.4980469,7.4189453c-0.8510742,0.8510742-1.8833008,1.2753906-3.0976563,1.2753906
		c-1.215332,0-2.2480469-0.4243164-3.0981445-1.2753906c-0.8505859-0.8500977-1.2753906-1.8823242-1.2753906-3.0976563
		c0-1.1796875,0.4248047-2.1948242,1.2753906-3.0458984C42.1523438,0.425293,43.1850586,0,44.4003906,0
		c1.2143555,0,2.246582,0.425293,3.0976563,1.2753906c0.8500977,0.8510742,1.2753906,1.8662109,1.2753906,3.0458984
		C48.7734375,5.5366211,48.3481445,6.5688477,47.4980469,7.4189453z M47.394043,33.6591797
		c-0.78125,0.815918-1.7441406,1.2236328-2.8896484,1.2236328s-2.1347656-0.4077148-2.9677734-1.2236328
		c-0.8330078-0.8149414-1.2495117-1.7958984-1.2495117-2.9414063V14.7338867c0-1.1796875,0.4165039-2.1689453,1.2495117-2.9677734
		c0.8330078-0.7978516,1.8393555-1.1972656,3.0200195-1.1972656c1.1450195,0,2.0996094,0.3994141,2.8632813,1.1972656
		c0.7631836,0.7988281,1.1455078,1.7880859,1.1455078,2.9677734v15.9838867
		C48.5654297,31.8632813,48.1748047,32.8442383,47.394043,33.6591797z"/>
	<path d="M63.8144531,10.3603516c3.3662109,0,6.2299805,1.171875,8.5908203,3.5146484
		c2.3598633,2.3427734,3.5400391,5.1982422,3.5400391,8.5644531v8.3823242c0,1.1455078-0.3994141,2.1083984-1.1972656,2.8896484
		c-0.7988281,0.7807617-1.7700195,1.1713867-2.9155273,1.1713867s-2.1435547-0.390625-2.9936523-1.1713867
		c-0.8510742-0.78125-1.2758789-1.7441406-1.2758789-2.8896484v-8.8510742c0-1.0751953-0.3120117-1.9692383-0.9370117-2.6811523
		c-0.625-0.7109375-1.527832-1.0673828-2.7075195-1.0673828c-1.0761719,0-1.9521484,0.3564453-2.6289063,1.0673828
		c-0.6767578,0.7119141-1.015625,1.5878906-1.015625,2.6293945v8.902832c0,1.1455078-0.3994141,2.1083984-1.1972656,2.8896484
		c-0.7988281,0.7807617-1.7529297,1.1713867-2.8632813,1.1713867c-1.1806641,0-2.1870117-0.390625-3.0200195-1.1713867
		c-0.8330078-0.78125-1.2495117-1.7441406-1.2495117-2.8896484v-8.3823242c0-3.3662109,1.1455078-6.2216797,3.4360352-8.5644531
		C57.6708984,11.5322266,60.4824219,10.3603516,63.8144531,10.3603516z"/>
	<path d="M99.4204102,1.3012695c1.1455078,0,2.1254883,0.4257813,2.9414063,1.2758789
		c0.8154297,0.8505859,1.2236328,1.8662109,1.2236328,3.0454102v17.1293945c0,3.4018555-1.2412109,6.3256836-3.7226563,8.7729492
		c-2.4819336,2.4467773-5.4584961,3.6704102-8.9287109,3.6704102c-3.4711914,0-6.4482422-1.2236328-8.9291992-3.6704102
		c-2.4819336-2.4472656-3.7226563-5.3710938-3.7226563-8.7729492c0-3.4013672,1.2407227-6.3168945,3.7226563-8.7470703
		c2.480957-2.4287109,5.4580078-3.6445313,8.9291992-3.6445313c1.5615234,0,3.0195313,0.2607422,4.3730469,0.78125v-5.519043
		c0-1.2143555,0.390625-2.2387695,1.1713867-3.0717773C97.2597656,1.7177734,98.2397461,1.3012695,99.4204102,1.3012695z
		 M91.4023438,27.3334961c1.1796875,0,2.1948242-0.4335938,3.0458984-1.3017578
		c0.8500977-0.8671875,1.2753906-1.9604492,1.2753906-3.2797852c0-1.2836914-0.425293-2.3598633-1.2753906-3.2280273
		c-0.8510742-0.8671875-1.8662109-1.3017578-3.0458984-1.3017578c-1.3886719,0-2.5249023,0.4257813-3.4101563,1.2758789
		c-0.8847656,0.8505859-1.3276367,1.9350586-1.3276367,3.2539063c0,1.3193359,0.4428711,2.4125977,1.3276367,3.2797852
		C88.8774414,26.8999023,90.0136719,27.3334961,91.4023438,27.3334961z"/>
	<path d="M129.5854492,21.2421875c0,1.4926758-0.2861328,2.5600586-0.8588867,3.2016602
		c-0.5727539,0.6425781-1.4667969,0.9633789-2.6816406,0.9633789h-11.7143555
		c0.8330078,1.8398438,2.3251953,2.7944336,4.4775391,2.8632813c1.2836914,0.0351563,2.6035156-0.2421875,3.9570313-0.8330078
		c2.1166992-0.9018555,3.6264648-0.5205078,4.5292969,1.1455078c0.3818359,0.6948242,0.4770508,1.4580078,0.2866211,2.2910156
		c-0.1914063,0.8330078-0.6860352,1.527832-1.4838867,2.0825195c-2.0131836,1.4926758-4.7036133,2.2387695-8.0698242,2.2387695
		c-3.5756836,0-6.4819336-1.1977539-8.7207031-3.5927734c-2.2387695-2.3945313-3.3583984-5.3447266-3.3583984-8.8505859
		c0-3.5405273,1.1196289-6.4902344,3.3583984-8.8510742c2.2387695-2.3598633,5.1972656-3.5405273,8.8769531-3.5405273
		c3.4008789,0,6.1513672,1.0766602,8.2519531,3.2280273C128.5351563,15.7412109,129.5854492,18.2924805,129.5854492,21.2421875z
		 M114.0703125,20.6171875h8.1743164c-0.0703125-1.0063477-0.4775391-1.7963867-1.2236328-2.3686523
		c-0.7470703-0.5727539-1.5878906-0.859375-2.5253906-0.859375
		C116.2050781,17.3891602,114.7294922,18.465332,114.0703125,20.6171875z"/>
	<path d="M149.0678711,14.6298828c0,1.1113281-0.3818359,2.0913086-1.1455078,2.9414063
		c-0.7636719,0.8510742-1.7880859,1.2758789-3.0712891,1.2758789c-1.3886719,0-2.5429688,0.4511719-3.4628906,1.3535156
		c-0.9199219,0.902832-1.3793945,2.1347656-1.3793945,3.6967773v6.9243164c0,1.1113281-0.3994141,2.0654297-1.1977539,2.8637695
		c-0.7988281,0.7988281-1.7529297,1.1972656-2.8632813,1.1972656c-1.1455078,0-2.1347656-0.3984375-2.9677734-1.1972656
		c-0.8330078-0.7983398-1.2495117-1.7524414-1.2495117-2.8637695v-7.5493164c0-4.1298828,1.1367188-7.2890625,3.4101563-9.4755859
		c2.2729492-2.1865234,5.3535156-3.2802734,9.2416992-3.2802734c1.6308594,0,2.8193359,0.3994141,3.5664063,1.1977539
		C148.6948242,12.5131836,149.0678711,13.484375,149.0678711,14.6298828z"/>
</g>
</svg>
